<svg width="25" height="28" viewBox="0 0 25 28" fill="none" xmlns="http://www.w3.org/2000/svg">
<path d="M12.5 14.5535C18.4728 14.5535 24.6016 18.4844 24.9985 26.3815C25.0138 26.6859 24.9091 26.984 24.7074 27.2103C24.5057 27.4367 24.2235 27.5727 23.9228 27.5885C20.7712 27.7511 6.17573 27.8508 1.07874 27.5885C0.777759 27.5731 0.49518 27.4372 0.293154 27.2109C0.0911282 26.9845 -0.0137969 26.6862 0.00145827 26.3815C0.39843 18.4859 6.52725 14.5535 12.5 14.5535ZM12.5 0.75C10.9931 0.75 9.54788 1.35595 8.48233 2.43456C7.41678 3.51316 6.81815 4.97607 6.81815 6.50145C6.81815 8.02682 7.41678 9.48973 8.48233 10.5683C9.54788 11.6469 10.9931 12.2529 12.5 12.2529C14.0069 12.2529 15.4521 11.6469 16.5177 10.5683C17.5832 9.48973 18.1818 8.02682 18.1818 6.50145C18.1818 4.97607 17.5832 3.51316 16.5177 2.43456C15.4521 1.35595 14.0069 0.75 12.5 0.75Z" fill="white"/>
</svg>
