<svg width="8" height="9" viewBox="0 0 8 9" fill="none" xmlns="http://www.w3.org/2000/svg">
<path d="M2.98038 8.39922C2.71938 8.39922 2.47218 8.27742 2.31378 8.06742L0.169983 5.23482C0.10355 5.1474 0.055032 5.04772 0.0272132 4.94151C-0.000605674 4.83529 -0.00717788 4.72463 0.00787349 4.61587C0.0229249 4.50711 0.0593035 4.40239 0.114922 4.30773C0.170541 4.21306 0.244306 4.13031 0.331983 4.06422C0.419438 3.9976 0.519201 3.94893 0.625534 3.921C0.731867 3.89308 0.842672 3.88645 0.951575 3.90151C1.06048 3.91657 1.16533 3.953 1.2601 4.00873C1.35487 4.06446 1.43768 4.13837 1.50378 4.22622L2.91438 6.08862L6.46098 0.393416C6.5786 0.205376 6.766 0.0716644 6.98208 0.0216106C7.19815 -0.0284432 7.42526 0.00924794 7.61358 0.126416C8.00538 0.370016 8.12598 0.886017 7.88118 1.27842L3.69078 8.00442C3.61925 8.11975 3.52065 8.21588 3.40355 8.28447C3.28644 8.35306 3.15437 8.39204 3.01878 8.39802L2.98038 8.39922Z" fill="black"/>
</svg>
