<svg width="17" height="10" viewBox="0 0 17 10" fill="none" xmlns="http://www.w3.org/2000/svg">
<path d="M15.8477 4.42C15.1177 3.38 12.3977 0 8.01769 0C3.63769 0 0.917691 3.38 0.187691 4.42C0.0656784 4.58878 0 4.79174 0 5C0 5.20826 0.0656784 5.41122 0.187691 5.58C0.917691 6.62 3.63769 10 8.01769 10C12.3977 10 15.1177 6.62 15.8477 5.58C15.9697 5.41122 16.0354 5.20826 16.0354 5C16.0354 4.79174 15.9697 4.58878 15.8477 4.42ZM8.01769 8C6.36769 8 5.01769 6.65 5.01769 5C5.01769 3.35 6.36769 2 8.01769 2C9.66769 2 11.0177 3.35 11.0177 5C11.0177 6.65 9.66769 8 8.01769 8Z" fill="#C6C6C6"/>
<path d="M8.01758 7C9.12215 7 10.0176 6.10457 10.0176 5C10.0176 3.89543 9.12215 3 8.01758 3C6.91301 3 6.01758 3.89543 6.01758 5C6.01758 6.10457 6.91301 7 8.01758 7Z" fill="#C6C6C6"/>
</svg>
