<svg width="16" height="14" viewBox="0 0 16 14" fill="none" xmlns="http://www.w3.org/2000/svg">
<path d="M8.00069 12.0006C6.99069 12.0006 6.06869 11.8206 5.23969 11.5296L6.95169 9.81663C7.27369 9.93663 7.62169 10.0006 7.98269 10.0006C9.63269 10.0006 10.9827 8.65063 10.9827 7.00063C10.9827 6.63863 10.9187 6.29063 10.7997 5.96963L13.0847 3.68463C14.1397 4.43906 15.062 5.36367 15.8137 6.42063C15.9357 6.58941 16.0014 6.79237 16.0014 7.00063C16.0014 7.20889 15.9357 7.41185 15.8137 7.58063C15.0847 8.62063 12.3707 12.0006 8.00069 12.0006ZM9.03969 4.19363L10.7617 2.47163C9.87468 2.15936 8.94106 2.00009 8.00069 2.00063C3.63069 2.00063 0.916691 5.38063 0.187691 6.42063C0.0656784 6.58941 0 6.79237 0 7.00063C0 7.20889 0.0656784 7.41185 0.187691 7.58063C0.569691 8.12463 1.49469 9.31063 2.91669 10.3166L5.17669 8.05663C5.04905 7.71916 4.98333 7.36143 4.98269 7.00063C4.98269 5.35063 6.33269 4.00063 7.98269 4.00063C8.35469 4.00063 8.71069 4.06863 9.03969 4.19363ZM1.85469 13.8546C1.8082 13.9011 1.75301 13.938 1.69227 13.9632C1.63153 13.9883 1.56643 14.0013 1.50069 14.0013C1.43495 14.0013 1.36985 13.9883 1.30911 13.9632C1.24837 13.938 1.19318 13.9011 1.14669 13.8546C1.1002 13.8081 1.06333 13.753 1.03817 13.6922C1.01301 13.6315 1.00006 13.5664 1.00006 13.5006C1.00006 13.4349 1.01301 13.3698 1.03817 13.309C1.06333 13.2483 1.1002 13.1931 1.14669 13.1466L14.1467 0.146632C14.2406 0.052745 14.3679 0 14.5007 0C14.6335 0 14.7608 0.052745 14.8547 0.146632C14.9486 0.240518 15.0013 0.367856 15.0013 0.500632C15.0013 0.633407 14.9486 0.760745 14.8547 0.854632L1.85469 13.8546ZM7.78069 8.98863C8.07869 9.02163 8.38029 8.98722 8.66319 8.88792C8.9461 8.78863 9.20305 8.627 9.41506 8.415C9.62706 8.20299 9.78869 7.94604 9.88798 7.66314C9.98728 7.38024 10.0217 7.07863 9.98869 6.78063L7.78069 8.98863ZM8.22069 5.01263C7.92269 4.97963 7.62109 5.01405 7.33819 5.11334C7.05529 5.21263 6.79833 5.37426 6.58632 5.58626C6.37432 5.79827 6.21269 6.05523 6.1134 6.33813C6.01411 6.62103 5.97969 6.92263 6.01269 7.22063L8.22069 5.01263Z" fill="#C6C6C6"/>
</svg>
