<svg width="32" height="32" viewBox="0 0 32 32" fill="none" xmlns="http://www.w3.org/2000/svg">
<path d="M25.375 0.900391C26.8955 0.900391 28.3527 1.54479 29.4258 2.68945C30.4984 3.8338 31.0995 5.3844 31.0996 7V13.501C31.0995 13.9232 30.9427 14.3295 30.6611 14.6299C30.3792 14.9305 29.9954 15.1006 29.5938 15.1006C29.1921 15.1006 28.8083 14.9305 28.5264 14.6299C28.2448 14.3295 28.088 13.9232 28.0879 13.501V7C28.0878 6.22898 27.8004 5.49065 27.291 4.94727C26.7818 4.40403 26.0922 4.10059 25.375 4.10059H6.625C5.90776 4.10059 5.21825 4.40403 4.70898 4.94727C4.19965 5.49065 3.91217 6.22898 3.91211 7V25.6279L6.96973 22.3721L7.38281 21.9326L7.41211 21.9014H16.4688C16.8704 21.9014 17.2542 22.0714 17.5361 22.3721C17.8178 22.6725 17.9746 23.0787 17.9746 23.501C17.9746 23.9233 17.8178 24.3294 17.5361 24.6299C17.2542 24.9306 16.8704 25.1006 16.4688 25.1006H8.66211L3.47266 30.6299C3.26253 30.8537 2.9943 31.0072 2.70117 31.0693C2.40795 31.1315 2.10391 31.0993 1.82812 30.9775C1.55236 30.8557 1.31709 30.6494 1.15234 30.3867C0.9878 30.1241 0.90065 29.8157 0.900391 29.501V7C0.900456 5.3844 1.50164 3.8338 2.57422 2.68945C3.64729 1.54479 5.10448 0.900391 6.625 0.900391H25.375ZM25.375 14.9004C25.7766 14.9004 26.1605 15.0714 26.4424 15.3721C26.7239 15.6725 26.8809 16.0788 26.8809 16.501V19.4004H29.5938C29.9954 19.4004 30.3792 19.5714 30.6611 19.8721C30.9427 20.1725 31.0996 20.5787 31.0996 21.001C31.0996 21.4233 30.9428 21.8294 30.6611 22.1299C30.3792 22.4306 29.9954 22.6006 29.5938 22.6006H26.8809V25.501C26.8809 25.9232 26.724 26.3294 26.4424 26.6299C26.1605 26.9306 25.7766 27.1016 25.375 27.1016C24.9734 27.1016 24.5895 26.9306 24.3076 26.6299C24.026 26.3294 23.8691 25.9232 23.8691 25.501V22.6006H21.1562C20.7546 22.6006 20.3708 22.4306 20.0889 22.1299C19.8072 21.8294 19.6504 21.4233 19.6504 21.001C19.6504 20.5787 19.8073 20.1725 20.0889 19.8721C20.3708 19.5714 20.7546 19.4004 21.1562 19.4004H23.8691V16.501C23.8691 16.0788 24.0261 15.6725 24.3076 15.3721C24.5895 15.0714 24.9734 14.9004 25.375 14.9004Z" fill="black" stroke="black" stroke-width="0.2"/>
</svg>
