<svg width="4" height="7" viewBox="0 0 4 7" fill="none" xmlns="http://www.w3.org/2000/svg">
<path fill-rule="evenodd" clip-rule="evenodd" d="M3.68814 2.96886C3.78188 3.06262 3.83454 3.18977 3.83454 3.32236C3.83454 3.45494 3.78188 3.58209 3.68814 3.67586L0.859644 6.50436C0.813521 6.55211 0.758349 6.5902 0.697347 6.61641C0.636345 6.64261 0.570734 6.6564 0.504345 6.65698C0.437955 6.65756 0.372115 6.64491 0.310667 6.61977C0.249219 6.59463 0.193393 6.5575 0.146447 6.51055C0.0995002 6.46361 0.0623736 6.40778 0.0372332 6.34633C0.0120927 6.28488 -0.00055803 6.21904 1.88785e-05 6.15266C0.000595787 6.08627 0.0143889 6.02066 0.0405934 5.95965C0.0667979 5.89865 0.104889 5.84348 0.152644 5.79736L2.62764 3.32236L0.152644 0.847356C0.0615649 0.753055 0.0111678 0.626754 0.012307 0.495655C0.0134462 0.364557 0.0660305 0.239151 0.158735 0.146447C0.251439 0.0537425 0.376845 0.00115811 0.507943 1.89013e-05C0.639042 -0.00112031 0.765343 0.0492769 0.859644 0.140356L3.68814 2.96886Z" fill="white"/>
</svg>
