<svg width="30" height="22" viewBox="0 0 30 22" fill="none" xmlns="http://www.w3.org/2000/svg">
<path d="M7.33333 21.3333C5.30667 21.3333 3.57778 20.6356 2.14667 19.24C0.715555 17.8356 0 16.1244 0 14.1067C0 12.3733 0.52 10.8267 1.56 9.46667C2.60889 8.10667 3.97778 7.24 5.66667 6.86667C6.22667 4.82222 7.33778 3.16889 9 1.90667C10.6711 0.635555 12.56 0 14.6667 0C17.2711 0 19.4756 0.906667 21.28 2.72C23.0933 4.52444 24 6.72889 24 9.33333C25.5378 9.51111 26.8089 10.1778 27.8133 11.3333C28.8267 12.4711 29.3333 13.8044 29.3333 15.3333C29.3333 17.0044 28.7511 18.4222 27.5867 19.5867C26.4222 20.7511 25.0044 21.3333 23.3333 21.3333H16C15.2711 21.3333 14.6444 21.0711 14.12 20.5467C13.5956 20.0311 13.3333 19.4044 13.3333 18.6667V11.8L11.2 13.8667L9.33333 12L14.6667 6.66667L20 12L18.1333 13.8667L16 11.8V18.6667H23.3333C24.2667 18.6667 25.0533 18.3422 25.6933 17.6933C26.3422 17.0533 26.6667 16.2667 26.6667 15.3333C26.6667 14.4 26.3422 13.6133 25.6933 12.9733C25.0533 12.3244 24.2667 12 23.3333 12H21.3333V9.33333C21.3333 7.49333 20.6844 5.92 19.3867 4.61333C18.0889 3.31556 16.5156 2.66667 14.6667 2.66667C12.8267 2.66667 11.2533 3.31556 9.94667 4.61333C8.64889 5.92 8 7.49333 8 9.33333H7.33333C6.04444 9.33333 4.94667 9.79111 4.04 10.7067C3.12444 11.6133 2.66667 12.7111 2.66667 14C2.66667 15.2889 3.12444 16.4 4.04 17.3333C4.94667 18.2222 6.04444 18.6667 7.33333 18.6667H10.6667V21.3333" fill="black"/>
</svg>
