<svg width="30" height="30" viewBox="0 0 30 30" fill="none" xmlns="http://www.w3.org/2000/svg">
<path d="M15 30C11.5 30 8.40278 28.9378 5.70833 26.8133C3.01389 24.6889 1.26389 21.9733 0.458333 18.6667C0.347222 18.25 0.430555 17.8683 0.708333 17.5217C0.986111 17.175 1.36111 16.9733 1.83333 16.9167C2.27778 16.8611 2.68055 16.9444 3.04167 17.1667C3.40278 17.3889 3.65278 17.7222 3.79167 18.1667C4.45833 20.6667 5.83333 22.7083 7.91667 24.2917C10 25.875 12.3611 26.6667 15 26.6667C18.25 26.6667 21.0072 25.535 23.2717 23.2717C25.5361 21.0083 26.6678 18.2511 26.6667 15C26.6656 11.7489 25.5339 8.99222 23.2717 6.73C21.0094 4.46778 18.2522 3.33555 15 3.33333C13.0833 3.33333 11.2917 3.77778 9.625 4.66667C7.95833 5.55555 6.55555 6.77778 5.41667 8.33333H8.33333C8.80555 8.33333 9.20167 8.49333 9.52167 8.81333C9.84167 9.13333 10.0011 9.52889 10 10C9.99889 10.4711 9.83889 10.8672 9.52 11.1883C9.20111 11.5094 8.80555 11.6689 8.33333 11.6667H1.66667C1.19444 11.6667 0.798889 11.5067 0.48 11.1867C0.161111 10.8667 0.00111111 10.4711 0 10V3.33333C0 2.86111 0.16 2.46555 0.48 2.14667C0.8 1.82778 1.19556 1.66778 1.66667 1.66667C2.13778 1.66556 2.53389 1.82556 2.855 2.14667C3.17611 2.46778 3.33556 2.86333 3.33333 3.33333V5.58333C4.75 3.80555 6.47944 2.43055 8.52167 1.45833C10.5639 0.486111 12.7233 0 15 0C17.0833 0 19.035 0.396111 20.855 1.18833C22.675 1.98056 24.2583 3.04944 25.605 4.395C26.9517 5.74055 28.0211 7.32389 28.8133 9.145C29.6056 10.9661 30.0011 12.9178 30 15C29.9989 17.0822 29.6033 19.0339 28.8133 20.855C28.0233 22.6761 26.9539 24.2594 25.605 25.605C24.2561 26.9505 22.6728 28.02 20.855 28.8133C19.0372 29.6067 17.0856 30.0022 15 30ZM16.6667 14.3333L20.8333 18.5C21.1389 18.8055 21.2917 19.1944 21.2917 19.6667C21.2917 20.1389 21.1389 20.5278 20.8333 20.8333C20.5278 21.1389 20.1389 21.2917 19.6667 21.2917C19.1944 21.2917 18.8056 21.1389 18.5 20.8333L13.8333 16.1667C13.6667 16 13.5417 15.8128 13.4583 15.605C13.375 15.3972 13.3333 15.1817 13.3333 14.9583V8.33333C13.3333 7.86111 13.4933 7.46555 13.8133 7.14666C14.1333 6.82778 14.5289 6.66778 15 6.66666C15.4711 6.66555 15.8672 6.82555 16.1883 7.14666C16.5094 7.46778 16.6689 7.86333 16.6667 8.33333V14.3333Z" fill="black"/>
</svg>
